HIERARCHY
ROOT Hips
{
	OFFSET 0.000000 0.000000 0.000000
	CHANNELS 6 Xposition Yposition Zposition Zrotation Yrotation Xrotation 
	JOINT LHipJoint
	{
		OFFSET 0.000000 0.000000 0.000000
		CHANNELS 3 Zrotation Yrotation Xrotation
		JOINT LeftUpLeg
		{
			OFFSET 1.363060 -1.794630 0.839290
			CHANNELS 3 Zrotation Yrotation Xrotation
			JOINT LeftLeg
			{
				OFFSET 2.448110 -6.726130 0.000000
				CHANNELS 3 Zrotation Yrotation Xrotation
				JOINT LeftFoot
				{
					OFFSET 2.562200 -7.039590 0.000000
					CHANNELS 3 Zrotation Yrotation Xrotation
					JOINT LeftToeBase
					{
						OFFSET 0.157640 -0.433110 2.322550
						CHANNELS 3 Zrotation Yrotation Xrotation
						End Site
						{
							OFFSET 0.000000 0.000000 0.000000
						}
					}
				}
			}
		}
	}
	JOINT RHipJoint
	{
		OFFSET 0.000000 0.000000 0.000000
		CHANNELS 3 Zrotation Yrotation Xrotation
		JOINT RightUpLeg
		{
			OFFSET -1.305520 -1.794630 0.839290
			CHANNELS 3 Zrotation Yrotation Xrotation
			JOINT RightLeg
			{
				OFFSET -2.542530 -6.985550 0.000000
				CHANNELS 3 Zrotation Yrotation Xrotation
				JOINT RightFoot
				{
					OFFSET -2.568260 -7.056230 0.000000
					CHANNELS 3 Zrotation Yrotation Xrotation
					JOINT RightToeBase
					{
						OFFSET -0.164730 -0.452590 2.363150
						CHANNELS 3 Zrotation Yrotation Xrotation
						End Site
						{
							OFFSET 0.000000 0.000000 0.000000
						}
					}
				}
			}
		}
	}
	JOINT LowerBack
	{
		OFFSET 0.000000 0.000000 0.000000
		CHANNELS 3 Zrotation Yrotation Xrotation
		JOINT Spine
		{
			OFFSET 0.028270 2.035590 -0.193380
			CHANNELS 3 Zrotation Yrotation Xrotation
			JOINT Spine1
			{
				OFFSET 0.056720 2.048850 -0.042750
				CHANNELS 3 Zrotation Yrotation Xrotation
				JOINT Neck
				{
					OFFSET 0.000000 0.000000 0.000000
					CHANNELS 3 Zrotation Yrotation Xrotation
					JOINT Neck1
					{
						OFFSET -0.054170 1.746240 0.172020
						CHANNELS 3 Zrotation Yrotation Xrotation
						JOINT Head
						{
							OFFSET 0.104070 1.761360 -0.123970
							CHANNELS 3 Zrotation Yrotation Xrotation
							End Site
							{
								OFFSET 0.000000 0.000000 0.000000
							}
						}
					}
				}
				JOINT LeftShoulder
				{
					OFFSET 0.000000 0.000000 0.000000
					CHANNELS 3 Zrotation Yrotation Xrotation
					JOINT LeftArm
					{
						OFFSET 3.362410 1.200890 -0.311210
						CHANNELS 3 Zrotation Yrotation Xrotation
						JOINT LeftForeArm
						{
							OFFSET 4.983000 -0.000000 -0.000000
							CHANNELS 3 Zrotation Yrotation Xrotation
							JOINT LeftHand
							{
								OFFSET 3.483560 -0.000000 -0.000000
								CHANNELS 3 Zrotation Yrotation Xrotation
								JOINT LeftFingerBase
								{
									OFFSET 0.000000 0.000000 0.000000
									CHANNELS 3 Zrotation Yrotation Xrotation
									JOINT LeftHandIndex1
									{
										OFFSET 0.715260 -0.000000 -0.000000
										CHANNELS 3 Zrotation Yrotation Xrotation
										End Site
										{
											OFFSET 0.000000 0.000000 0.000000
										}
									}
								}
								JOINT LThumb
								{
									OFFSET 0.000000 0.000000 0.000000
									CHANNELS 3 Zrotation Yrotation Xrotation
									End Site
									{
										OFFSET 0.000000 0.000000 0.000000
									}
								}
							}
						}
					}
				}
				JOINT RightShoulder
				{
					OFFSET 0.000000 0.000000 0.000000
					CHANNELS 3 Zrotation Yrotation Xrotation
					JOINT RightArm
					{
						OFFSET -3.136600 1.374050 -0.404650
						CHANNELS 3 Zrotation Yrotation Xrotation
						JOINT RightForeArm
						{
							OFFSET -5.241900 -0.000000 -0.000000
							CHANNELS 3 Zrotation Yrotation Xrotation
							JOINT RightHand
							{
								OFFSET -3.444170 -0.000000 -0.000000
								CHANNELS 3 Zrotation Yrotation Xrotation
								JOINT RightFingerBase
								{
									OFFSET 0.000000 0.000000 0.000000
									CHANNELS 3 Zrotation Yrotation Xrotation
									JOINT RightHandIndex1
									{
										OFFSET -0.622530 -0.000000 -0.000000
										CHANNELS 3 Zrotation Yrotation Xrotation
										End Site
										{
											OFFSET 0.000000 0.000000 0.000000
										}
									}
								}
								JOINT RThumb
								{
									OFFSET 0.000000 0.000000 0.000000
									CHANNELS 3 Zrotation Yrotation Xrotation
									End Site
									{
										OFFSET 0.000000 0.000000 0.000000
									}
								}
							}
						}
					}
				}
			}
		}
	}
}
MOTION
Frames: 12
Frame Time: 0.008333
-35.694877 17.030977 1.018824 110.359851 79.676765 111.502629 -4.144120 -2.688272 1.599291 -28.953005 0.467341 1.977185 -1.128487 10.957254 26.490741 2.541403 -3.940811 -11.300903 0.788500 5.668600 15.825900 0.868452 4.617174 -3.987296 1.364244 -5.477897 -27.423335 -9.895323 -18.231302 59.313000 -39.952453 2.850570 174.279628 -0.138300 -2.396700 6.603300 -13.304186 -1.131879 17.254088 -0.070479 -3.481439 -3.130336 1.735951 -1.828056 1.501889 -4.081244 -0.153984 -26.640651 7.023452 1.577152 3.330656 1.160400 0.942300 10.679100 7.470025 -2.201314 -0.766352 -80.006819 -11.432875 46.159078 101.022401 -58.691713 -73.600614 -2.052926 0.981809 -11.966461 45.037000 -29.085993 -28.096900 -7.125000 0.000000 0.000000 8.685400 -9.831200 -10.148100 -6.948353 4.165935 1.465644 79.693968 -40.141952 47.873241 -100.702818 57.529809 -66.454926 2.068012 0.430102 -24.913070 -30.099064 -29.398157 16.543300 7.125000 0.000000 0.000000 -2.070600 -62.312200 0.871600 
-35.206295 17.146350 1.019147 113.694623 79.052848 115.114909 -4.166295 -2.345288 1.868284 -29.370941 -0.584540 4.853455 -1.449667 10.148792 24.292652 3.304634 -7.298416 -8.890275 1.072100 6.582000 18.482800 0.743298 4.583194 -4.101339 1.190249 -5.571403 -29.811953 -10.532106 -18.458039 61.172791 -40.148429 6.360253 178.088805 -1.450400 -7.612600 21.543500 -13.699536 -1.621702 17.093948 0.011486 -4.209887 -3.213769 2.118332 -2.216960 1.408581 -3.917284 0.229267 -26.609551 6.906383 2.021646 3.600886 1.044900 1.133800 10.872900 7.539360 -2.209256 -0.799820 -80.662140 -12.234167 46.017559 103.721034 -58.400956 -75.802811 -2.073053 1.050273 -11.544524 46.054833 -29.418169 -29.251700 -7.125000 0.000000 0.000000 9.122200 -10.776400 -10.791300 -6.874079 4.144480 1.461342 78.994856 -42.191587 48.447245 -101.155219 57.442401 -66.987054 2.022697 0.456865 -24.749215 -29.718213 -29.435174 16.352000 7.125000 0.000000 0.000000 -1.514400 -62.324100 0.637800 
-34.691919 17.273919 1.010190 115.156559 78.636388 116.923303 -4.118311 -2.061951 2.070281 -29.681481 -0.958421 7.409852 -1.810081 9.325585 22.225730 2.734090 -5.799901 -6.885929 0.753200 5.543300 15.464800 0.578281 4.554739 -4.221149 1.096783 -4.942065 -31.812494 -11.463108 -18.853372 63.967369 -40.016853 3.956724 176.360999 -0.841700 -5.852200 16.356000 -14.089314 -2.080999 16.244999 0.094266 -4.719425 -3.192852 2.469205 -2.562654 2.020070 -3.738517 0.607717 -26.672521 6.786750 2.457237 3.813729 0.921000 1.323900 10.930200 7.629891 -2.139935 -0.782945 -81.199413 -13.202970 45.779515 106.234317 -58.109043 -77.846821 -2.091427 1.106261 -11.388658 46.862660 -29.614868 -30.149400 -7.125000 0.000000 0.000000 9.478600 -11.480100 -11.314900 -6.807475 3.982701 1.449888 78.008068 -43.784007 49.645896 -102.064883 57.330198 -67.953518 1.987860 0.514706 -26.421780 -32.175360 -29.172644 17.681600 7.125000 0.000000 0.000000 -4.725000 -62.643500 2.027700 
-34.172794 17.414655 1.007060 116.883277 78.318843 118.839115 -4.044927 -1.800553 2.268807 -29.606409 -0.812008 9.645470 -2.053865 8.589763 20.484991 2.275582 -4.659715 -4.338669 0.498700 4.527600 12.565900 0.396404 4.508524 -4.297820 1.215736 -4.309768 -33.359728 -12.654492 -19.354720 67.569626 -40.029243 4.244920 175.981615 -0.548400 -4.744200 13.180500 -14.391017 -2.511327 15.695224 0.194122 -5.230822 -3.193047 2.892017 -2.906818 2.423538 -3.591568 0.971110 -26.786276 6.696896 2.899813 4.011363 0.823500 1.517900 11.034100 7.716436 -2.092200 -0.773935 -81.655399 -13.870156 45.684970 108.720299 -57.728381 -79.854874 -2.115223 1.153335 -11.586289 47.606919 -29.876839 -31.057000 -7.125000 0.000000 0.000000 9.774500 -12.242700 -11.777800 -6.729427 3.859662 1.433278 77.014739 -45.384679 50.544578 -102.558727 57.284601 -68.518850 1.952954 0.524171 -27.206899 -33.066618 -28.439635 17.808300 7.125000 0.000000 0.000000 -6.019900 -62.065700 2.503400 
-33.651402 17.564348 1.008031 118.181015 78.127037 120.204335 -3.966984 -1.545717 2.531454 -29.220768 -0.290867 11.535232 -2.234257 7.890619 18.899085 1.781557 -3.247107 -1.213883 0.302100 3.533800 9.768700 0.236391 4.413756 -4.252202 1.353867 -3.901606 -34.487036 -14.048352 -19.830426 71.716967 -40.073025 5.049852 175.360888 -0.453900 -4.322100 11.984700 -14.569949 -2.716304 16.131684 0.300512 -5.741327 -3.409656 3.512393 -3.123751 1.370178 -3.602243 1.260457 -26.490326 6.693657 3.291191 4.256038 0.819100 1.688500 11.306600 7.777240 -2.194664 -0.846236 -82.166493 -13.308163 46.238291 111.433408 -57.125919 -82.002375 -2.165034 1.200714 -12.351206 48.765234 -30.628231 -32.736100 -7.125000 0.000000 0.000000 10.125900 -13.814000 -12.419800 -6.617067 3.990611 1.417122 76.134685 -47.868083 51.294961 -102.867873 57.071702 -68.987918 1.894312 0.511308 -27.323847 -32.727925 -27.665836 17.164300 7.125000 0.000000 0.000000 -5.670100 -61.164700 2.236500 
-33.125801 17.722460 1.011701 119.274808 77.944384 121.563225 -3.868833 -1.306614 2.681273 -28.710038 0.198643 13.241120 -2.409248 7.155148 17.160506 1.184653 -1.152003 2.469911 0.177700 2.715600 7.488100 0.083691 4.247687 -4.309458 1.651570 -3.642747 -35.530663 -16.111782 -20.517271 78.194085 -44.134715 33.613230 153.267076 -0.500900 -4.537400 12.593600 -14.772776 -3.071707 15.492531 0.374570 -6.116614 -3.388600 3.779597 -3.386831 1.827810 -3.472623 1.535509 -26.503807 6.706973 3.607289 4.259849 0.797300 1.842400 11.215700 7.825565 -2.139868 -0.810964 -82.144438 -13.762092 46.709372 113.513710 -56.680619 -83.644277 -2.214904 1.225792 -13.390928 49.960694 -31.418493 -34.498400 -7.125000 0.000000 0.000000 10.468100 -15.448400 -13.063500 -6.565780 3.867059 1.412041 75.455852 -49.237673 51.904316 -103.227282 57.073257 -69.370670 1.869452 0.519494 -27.766777 -32.770161 -27.270378 16.964600 7.125000 0.000000 0.000000 -5.775700 -60.751200 2.221600 
-32.596531 17.884026 1.018284 119.707600 77.683489 122.230357 -3.776436 -1.087759 2.818921 -28.194594 0.818671 14.806402 -2.533219 6.457288 15.478223 0.694485 0.993643 6.542546 0.076400 1.783500 4.907700 -0.138031 4.193933 -4.230575 1.671079 -2.912488 -36.231227 -18.284582 -20.786412 85.260403 -46.464364 55.343353 114.060602 -0.476100 -4.425200 12.276000 -15.220655 -3.312598 15.177686 0.478760 -6.492994 -3.457219 4.368407 -3.625273 1.771385 -3.336220 1.858706 -26.481963 6.519583 3.990441 4.402924 0.597400 1.986700 11.330100 7.919811 -2.155602 -0.812360 -82.323087 -13.725001 47.430798 115.500296 -56.149812 -85.187231 -2.256319 1.245589 -14.093764 50.878063 -31.658756 -35.624600 -7.125000 0.000000 0.000000 10.842500 -16.322700 -13.657500 -6.449989 3.809783 1.381921 74.549521 -50.918706 52.644421 -103.796640 56.928021 -70.069466 1.824376 0.533441 -28.160841 -33.448387 -26.861469 17.128000 7.125000 0.000000 0.000000 -6.652300 -60.492100 2.519400 
-32.065318 18.045052 1.029832 119.278182 77.490822 121.921179 -3.688025 -0.890572 2.960866 -27.460925 1.934359 16.070686 -2.574699 5.874016 14.094279 0.451709 2.809549 11.104285 0.013000 0.736500 2.024100 -0.293546 4.217940 -4.192042 1.672361 -2.246921 -36.346658 -18.970642 -20.795081 87.093711 4.835972 51.467559 57.829699 -0.530800 -4.668600 12.965700 -15.779462 -3.432500 14.964138 0.566936 -6.737589 -3.518388 5.022046 -3.797858 1.692236 -3.380558 2.082837 -26.472155 6.508296 4.335466 4.575260 0.577700 2.133300 11.466600 7.984885 -2.152036 -0.816392 -82.482863 -13.417258 48.345791 117.698616 -55.507068 -86.884131 -2.302888 1.253472 -14.886322 51.792389 -31.732424 -36.649500 -7.125000 0.000000 0.000000 11.272000 -17.023300 -14.307200 -6.366468 3.776594 1.351451 73.834483 -52.509657 53.095228 -104.128160 56.828117 -70.512649 1.791966 0.501658 -27.999772 -33.392580 -25.992482 16.578100 7.125000 0.000000 0.000000 -6.673700 -59.516400 2.372200 
-31.534537 18.206293 1.043431 119.182914 77.374459 121.848851 -3.634035 -0.675654 3.127220 -26.465525 3.049879 17.261871 -2.576571 5.359159 12.826701 0.339177 4.894622 15.985265 0.000300 -0.109300 -0.300400 -0.363173 4.256636 -4.239926 1.759009 -1.692055 -36.078188 -17.046468 -20.678813 83.210780 -2.305073 25.691348 26.420016 -0.801300 -5.713200 15.954400 -16.173280 -3.530879 14.821361 0.634890 -6.920713 -3.556468 5.484712 -3.935877 1.684503 -3.337951 2.234034 -26.540077 6.584064 4.556563 4.751137 0.605100 2.247800 11.622400 8.026341 -2.136222 -0.817811 -82.473518 -13.046345 49.294177 119.768662 -54.850070 -88.477845 -2.351906 1.257824 -15.732326 52.776057 -32.010319 -37.909600 -7.125000 0.000000 0.000000 11.665000 -18.001400 -14.950800 -6.310058 3.753623 1.327550 73.437490 -53.862741 53.004264 -104.574919 56.735873 -71.038299 1.733423 0.518079 -28.586001 -32.270116 -25.904341 15.897500 7.125000 0.000000 0.000000 -5.254800 -59.200500 1.826200 
-31.004619 18.363650 1.060052 119.566240 77.447503 122.299037 -3.629838 -0.427469 3.318796 -25.254990 3.793119 18.444069 -2.567372 4.887409 11.543634 0.252385 7.525315 20.495667 0.010300 -0.656700 -1.804600 -0.355912 4.237252 -4.357886 2.318114 -1.349700 -35.651315 -15.587364 -20.502393 76.769447 0.665124 -5.282404 7.305799 -0.677100 -5.261400 14.655600 -16.277820 -3.650031 14.608825 0.703954 -7.071782 -3.591584 5.763030 -4.052732 1.706957 -3.129593 2.398779 -26.651441 6.565948 4.720008 4.911956 0.523600 2.332500 11.789900 8.078786 -2.127792 -0.816655 -82.311301 -12.670965 50.317761 121.662234 -54.197079 -89.926052 -2.382649 1.240210 -16.179344 53.407103 -31.601885 -38.300600 -7.125000 0.000000 0.000000 12.131600 -17.980000 -15.567900 -6.240317 3.720544 1.311553 73.245800 -55.069012 53.021918 -104.651445 56.705750 -71.168255 1.713307 0.492525 -28.295637 -31.682821 -25.489844 15.334200 7.125000 0.000000 0.000000 -4.596600 -58.612000 1.531900 
-30.469952 18.513991 1.082932 119.483136 77.578413 122.340220 -3.625003 -0.185795 3.474102 -24.055488 4.489078 19.539672 -2.537553 4.485778 10.363406 0.207148 10.164627 24.110586 0.017100 -0.844500 -2.321000 -0.371114 4.271471 -4.434886 2.826838 -0.783104 -34.896229 -13.492877 -20.063882 70.618706 1.158495 -7.109911 5.426574 -0.702500 -5.357100 14.930000 -16.453442 -3.702639 14.237234 0.769173 -7.115755 -3.612608 6.062600 -4.123588 1.805959 -2.956660 2.567721 -26.690689 6.490424 4.892463 5.053332 0.401900 2.408500 11.905800 8.136790 -2.115814 -0.806850 -82.149042 -12.105425 51.341944 123.011123 -53.706713 -90.914318 -2.383977 1.263223 -16.689511 53.248027 -31.972602 -38.429900 -7.125000 0.000000 0.000000 11.888100 -18.344200 -15.291300 -6.160609 3.662819 1.307747 73.226266 -56.157738 52.970456 -104.845164 56.665335 -71.387864 1.702512 0.452788 -27.910526 -31.344553 -24.840709 14.777800 7.125000 0.000000 0.000000 -4.296300 -57.804700 1.348200 
-29.928810 18.654295 1.100632 118.546348 77.314640 121.505651 -3.585050 -0.020375 3.572803 -23.466448 5.147973 20.607754 -2.499465 4.219747 9.574173 0.341274 11.822328 26.851231 0.000500 -0.143400 -0.394000 -0.318335 4.297431 -4.497886 2.698764 -0.427354 -33.861449 -11.380974 -19.323352 64.271897 1.517999 -8.396228 4.139924 -0.787400 -5.664800 15.815000 -17.096865 -3.711763 13.846695 0.805942 -7.162900 -3.631665 6.448889 -4.187481 1.933450 -2.907486 2.672493 -26.588539 6.496217 5.021115 5.168328 0.353700 2.472100 11.935000 8.166843 -2.081959 -0.790614 -81.855063 -11.289990 52.478314 124.645623 -53.091690 -92.113196 -2.374330 1.269545 -17.278667 52.692889 -31.941536 -37.843600 -7.125000 0.000000 0.000000 11.585100 -18.006300 -14.845600 -6.106187 3.600619 1.313703 73.326572 -57.187138 52.696020 -105.389580 56.573366 -71.960029 1.677398 0.458700 -27.734063 -31.070648 -24.954830 14.702200 7.125000 0.000000 0.000000 -3.926800 -57.900100 1.241000 
